---
title: 群星.1993-秋日浪漫情歌精丫飞图】【WAV+CUE】
date: 2022-12-02 17:08:00
categories: WAV车载音乐、镜像
tags: 华语中文
---
# 群星.1993-秋日浪漫情歌精丫飞图】【WAV+CUE】

REM GENRE POP
REM DATE 1993
REM DISCID E20E780F
REM COMMENT "ExactAudioCopy v1.0b3"
TITLE "秋日浪漫情歌精选"
FILE "群星.-.[秋日浪漫情歌精选](1993)[WAV].wav" WAVE
TRACK 01 AUDIO
TITLE "晚秋"
PERFORMER "黄凯芹"
INDEX 01 00:00:00
TRACK 02 AUDIO
TITLE "浪漫故事（UnpIugged
Version）"
PERFORMER "梁雁翎"
INDEX 00 03:31:12
INDEX 01 03:34:12
TRACK 03 AUDIO
TITLE "You Re The
Only（Unpiugged Version）"
PERFORMER "蔡济文"
INDEX 00 07:07:62
INDEX 01 07:10:62
TRACK 04 AUDIO
TITLE "不变的爱"
PERFORMER
"叶玉卿&蔡济文"
INDEX 00 09:53:50
INDEX 01 09:56:50
TRACK 05 AUDIO
TITLE "爱的自然"
PERFORMER "黄凯芹"
INDEX 00 14:13:50
INDEX 01 14:16:50
TRACK 06 AUDIO
TITLE "今夜"
PERFORMER "林帆"
INDEX 00 18:48:62
INDEX 01 18:51:62
TRACK 07 AUDIO
TITLE "昨夜星辰"
PERFORMER "黄凯芹"
INDEX 00 23:10:37
INDEX 01 23:13:37
TRACK 08 AUDIO
TITLE "离开那个不爱你的人"
PERFORMER "梁雁翎"
INDEX 00 27:26:50
INDEX 01 27:29:50
TRACK 09 AUDIO
TITLE "紫色的眼泪"
PERFORMER "叶玉卿"
INDEX 00 31:45:62
INDEX 01 31:48:62
TRACK 10 AUDIO
TITLE "哪里的天空不下雨"
PERFORMER
"梁雁翎&黄凯芹"
INDEX 00 35:10:12
INDEX 01 35:13:12
TRACK 11 AUDIO
TITLE "亲密爱人"
PERFORMER "陈亮吟"
INDEX 00 39:21:62
INDEX 01 39:24:62
TRACK 12 AUDIO
TITLE "情人知己"
PERFORMER "林帆"
INDEX 00 44:48:62
INDEX 01 44:51:62
TRACK 13 AUDIO
TITLE "不散的空虚"
PERFORMER "叶玉卿"
INDEX 00 49:32:37
INDEX 01 49:35:37
TRACK 14 AUDIO
TITLE "怎么能"
PERFORMER "林帆"
INDEX 00 54:30:50
INDEX 01 54:33:50
TRACK 15 AUDIO
TITLE "再见亦是朋友"
PERFORMER
"林帆&李家发"
INDEX 00 58:14:25
INDEX 01 58:17:25
飞图群星.1993 - 秋日浪漫情歌精选【飞图】【WAV+CUE】.rar:
https://url27.ctfile.com/f/9388027-739394980-98c9e0?p=559675
(访问密码: 559675)
原文：[链接](https://blog.sina.com.cn/s/blog_1647c7e76010310es.html)